<?xml version="1.0" standalone="no"?>
<!DOCTYPE svg PUBLIC "-//W3C//DTD SVG 20010904//EN"
 "http://www.w3.org/TR/2001/REC-SVG-20010904/DTD/svg10.dtd">
<svg version="1.0" xmlns="http://www.w3.org/2000/svg"
 width="850.000000pt" height="719.000000pt" viewBox="0 0 850.000000 719.000000"
 preserveAspectRatio="xMidYMid meet">

<g transform="translate(0.000000,719.000000) scale(0.100000,-0.100000)"
fill="#000000" stroke="none">
<path d="M0 3595 l0 -3595 4250 0 4250 0 0 3595 0 3595 -4250 0 -4250 0 0
-3595z m5855 1013 c22 -5 51 -12 65 -15 39 -8 134 -47 148 -60 7 -7 20 -13 29
-13 8 0 32 -13 53 -30 21 -16 42 -30 47 -30 15 0 148 -143 190 -205 56 -83 97
-177 127 -294 46 -176 33 -404 -30 -557 -61 -147 -107 -216 -225 -335 -85 -85
-215 -164 -344 -209 -163 -57 -384 -67 -555 -24 -58 14 -119 32 -137 40 -17 8
-34 14 -38 14 -15 0 -171 84 -198 106 -16 13 -34 24 -40 24 -7 0 -41 23 -76
50 -36 28 -69 50 -74 50 -5 0 -22 10 -37 23 -16 12 -45 33 -65 47 -81 56 -397
321 -444 373 -19 21 -40 36 -47 33 -7 -3 -15 5 -19 17 -4 12 -76 87 -161 167
-187 176 -180 170 -193 170 -6 0 -11 4 -11 9 0 4 -35 37 -77 72 -43 35 -96 81
-118 102 -22 20 -71 58 -110 84 -38 25 -81 54 -95 64 -14 10 -45 28 -70 40
-25 12 -52 28 -60 35 -23 18 -171 94 -185 94 -7 0 -18 7 -25 15 -7 8 -16 12
-22 9 -5 -3 -14 -1 -21 4 -7 5 -32 14 -57 20 -25 6 -65 16 -89 22 -60 15 -258
17 -356 4 -90 -12 -172 -37 -270 -79 -95 -42 -269 -190 -298 -255 -4 -8 -18
-33 -32 -55 -14 -22 -28 -47 -31 -55 -3 -8 -10 -24 -16 -34 -53 -99 -63 -399
-19 -574 11 -42 69 -172 81 -182 3 -3 16 -21 28 -41 25 -41 105 -121 172 -172
138 -105 275 -154 470 -167 98 -7 131 -5 220 13 105 20 134 32 125 48 -3 4 8
3 25 -2 22 -8 34 -8 44 0 7 6 32 17 55 25 62 23 112 47 146 71 17 12 55 31 85
44 30 13 66 33 80 46 14 12 52 37 85 55 58 32 169 110 210 148 11 10 36 30 56
45 20 14 54 43 76 64 103 98 119 109 138 93 35 -29 13 -62 -99 -153 -21 -18
-51 -44 -66 -58 -15 -14 -43 -36 -61 -49 -19 -13 -36 -27 -39 -30 -5 -5 -30
-24 -160 -118 -36 -26 -79 -54 -95 -62 -44 -22 -98 -59 -107 -73 -4 -7 -16
-13 -28 -13 -11 -1 -62 -22 -112 -47 -170 -83 -356 -126 -538 -123 -183 3
-270 24 -430 101 -182 89 -356 286 -417 475 -41 124 -44 146 -50 286 -7 186
10 274 85 434 25 52 104 165 144 203 10 10 18 24 18 32 0 8 6 15 13 15 8 0 27
11 43 25 65 57 234 147 308 166 23 5 70 17 106 26 46 11 112 16 225 16 136 0
172 -3 240 -23 44 -12 85 -25 90 -29 6 -4 28 -13 50 -20 54 -18 275 -128 295
-146 9 -8 21 -15 27 -15 5 0 18 -9 28 -20 19 -21 70 -50 88 -50 6 0 25 -15 42
-32 17 -18 42 -41 56 -51 39 -29 133 -101 149 -114 43 -34 156 -139 163 -150
4 -7 13 -13 18 -13 9 0 51 -38 259 -240 132 -128 186 -177 255 -235 39 -32 81
-69 95 -82 68 -62 276 -215 378 -278 9 -5 39 -24 67 -42 223 -137 447 -201
664 -187 184 11 415 108 521 219 14 14 36 36 48 48 33 31 93 112 119 161 101
193 108 220 107 421 -1 137 -4 168 -23 219 -11 33 -21 65 -21 73 0 19 -57 140
-70 148 -6 4 -17 21 -24 39 -17 40 -158 185 -201 206 -16 8 -32 17 -35 20 -3
3 -41 22 -85 41 -87 39 -235 69 -342 69 -79 0 -214 -24 -317 -56 -111 -35
-357 -159 -426 -215 -19 -16 -38 -29 -43 -29 -5 0 -19 -8 -32 -17 -12 -10 -33
-25 -45 -33 -12 -8 -71 -52 -132 -97 -60 -46 -112 -83 -117 -83 -4 0 -28 -19
-52 -43 -114 -111 -179 -145 -179 -94 0 33 19 55 104 122 43 33 105 83 139
111 34 27 87 67 117 89 30 21 64 47 75 57 11 11 58 42 105 70 184 109 207 122
250 145 24 13 49 28 54 33 6 6 19 10 31 10 12 0 25 4 31 9 10 9 102 42 174 62
113 31 359 41 455 17z m-2795 -182 c0 -11 -19 -15 -25 -6 -3 5 1 10 9 10 9 0
16 -2 16 -4z m475 -36 c3 -5 1 -10 -4 -10 -6 0 -11 5 -11 10 0 6 2 10 4 10 3
0 8 -4 11 -10z m2826 -22 c11 -21 11 -22 -4 -9 -10 7 -17 17 -17 22 0 15 9 10
21 -13z m-1246 -28 c-3 -5 -12 -10 -18 -10 -7 0 -6 4 3 10 19 12 23 12 15 0z
m-2955 -40 c0 -5 -2 -10 -4 -10 -3 0 -8 5 -11 10 -3 6 -1 10 4 10 6 0 11 -4
11 -10z m1490 -20 c0 -5 -5 -10 -11 -10 -5 0 -7 5 -4 10 3 6 8 10 11 10 2 0 4
-4 4 -10z m1340 2 c0 -4 -9 -13 -20 -20 -22 -13 -23 -12 -14 12 6 16 34 23 34
8z m1240 -2 c0 -5 -5 -10 -11 -10 -5 0 -7 5 -4 10 3 6 8 10 11 10 2 0 4 -4 4
-10z m-4310 -270 c0 -11 -4 -20 -10 -20 -5 0 -10 9 -10 20 0 11 5 20 10 20 6
0 10 -9 10 -20z m2190 -120 c0 -5 -7 -10 -15 -10 -8 0 -15 5 -15 10 0 6 7 10
15 10 8 0 15 -4 15 -10z m86 -112 c20 -39 4 -35 -21 5 -28 46 -30 54 -11 38
10 -8 24 -27 32 -43z m154 12 c0 -5 -5 -10 -11 -10 -5 0 -7 5 -4 10 3 6 8 10
11 10 2 0 4 -4 4 -10z m-66 -75 c-4 -8 -10 -15 -15 -15 -4 0 -6 7 -3 15 4 8
10 15 15 15 4 0 6 -7 3 -15z m-194 -45 c0 -5 -4 -10 -10 -10 -5 0 -10 5 -10
10 0 6 5 10 10 10 6 0 10 -4 10 -10z m48 -48 c2 -7 -6 -12 -17 -12 -21 0 -27
11 -14 24 9 9 26 2 31 -12z m102 -118 c0 -8 -4 -12 -10 -9 -5 3 -10 13 -10 21
0 8 5 12 10 9 6 -3 10 -13 10 -21z m-555 -54 c-3 -5 -11 -10 -16 -10 -6 0 -7
5 -4 10 3 6 11 10 16 10 6 0 7 -4 4 -10z m699 -71 c-4 -6 -11 -6 -20 2 -21 17
-17 31 6 19 11 -6 18 -15 14 -21z m-699 1 c-3 -5 -10 -10 -16 -10 -5 0 -9 5
-9 10 0 6 7 10 16 10 8 0 12 -4 9 -10z m-63 -42 c-6 -6 -15 -8 -19 -4 -4 4 -1
11 7 16 19 12 27 3 12 -12z m1125 -34 c-3 -3 -12 -4 -19 -1 -8 3 -5 6 6 6 11
1 17 -2 13 -5z m1413 -185 c0 -5 -7 -9 -15 -9 -15 0 -20 12 -9 23 8 8 24 -1
24 -14z m-555 -189 c4 -6 -5 -10 -19 -10 -14 0 -26 5 -26 10 0 6 9 10 19 10
11 0 23 -4 26 -10z"/>
</g>
</svg>
